<?xml version="1.0" encoding="utf-8"?>
<!-- Generator: Adobe Illustrator 25.2.1, SVG Export Plug-In . SVG Version: 6.00 Build 0)  -->
<svg version="1.1" id="Слой_1" xmlns="http://www.w3.org/2000/svg" xmlns:xlink="http://www.w3.org/1999/xlink" x="0px" y="0px"
	 viewBox="0 0 398 93" style="enable-background:new 0 0 398 93;" xml:space="preserve">
<style type="text/css">
	.st0{fill:#4B4C4C;}
	.st1{fill:#010101;}
	.st2{fill:#3782C4;}
	.st3{fill:#3271B7;}
	.st4{fill:#388CCB;}
	.st5{fill:#41ADE4;}
	.st6{fill:#AAD9F2;}
	.st7{fill:#B2DCF4;}
	.st8{fill:#3F9BD6;}
	.st9{fill:#3FA0DB;}
	.st10{fill:#5EB1E3;}
	.st11{fill:#68BEEA;}
	.st12{fill:#B7E0F0;}
	.st13{fill:#63BBEB;}
</style>
<g>
	<path class="st0" d="M144.9,35.8H143l-0.7-1.8h-4.3l-0.7,1.8h-1.9l3.7-9.3h2L144.9,35.8z M141.9,32.6l-1.7-4.5l-1.7,4.5H141.9z"/>
	<path class="st0" d="M150.4,36c-1.4,0-2.6-0.5-3.5-1.3c-0.9-0.9-1.4-2.1-1.4-3.5c0-1.4,0.5-2.6,1.4-3.5s2.1-1.4,3.5-1.4
		c1.6,0,2.9,0.7,3.8,2.1l-1.4,0.7c-0.2-0.4-0.6-0.7-1-1c-0.4-0.2-0.9-0.4-1.4-0.4c-0.9,0-1.7,0.3-2.3,1s-0.9,1.4-0.9,2.4
		s0.3,1.8,0.9,2.4c0.6,0.6,1.4,1,2.3,1c0.5,0,0.9-0.1,1.4-0.4s0.8-0.6,1-1l1.4,0.7C153.2,35.3,152,36,150.4,36z"/>
	<path class="st0" d="M159.3,35.8h-1.6v-7.9h-2.8v-1.4h7.3v1.4h-2.8L159.3,35.8L159.3,35.8z"/>
	<path class="st0" d="M165.2,35.8h-1.6v-9.3h4.1c0.9,0,1.7,0.3,2.2,0.8s0.8,1.3,0.8,2.1c0,0.8-0.3,1.5-0.8,2.1
		c-0.6,0.6-1.3,0.9-2.2,0.9h-2.5V35.8z M167.4,30.9c0.5,0,0.9-0.1,1.1-0.4c0.3-0.3,0.4-0.6,0.4-1.1s-0.1-0.8-0.4-1.1
		s-0.7-0.4-1.1-0.4h-2.2v3L167.4,30.9L167.4,30.9z"/>
	<path class="st0" d="M180.4,35.8h-1.9l-0.7-1.8h-4.3l-0.7,1.8h-1.9l3.7-9.3h2L180.4,35.8z M177.4,32.6l-1.7-4.5l-1.7,4.5H177.4z"/>
	<path class="st0" d="M189.7,35.8h-2l-2.6-3.7l-2.6,3.7h-2L184,31l-3.3-4.5h2l2.4,3.4l2.4-3.4h2l-3.3,4.5L189.7,35.8z"/>
	<path class="st0" d="M199.1,35.8h-1.9l-0.7-1.8h-4.3l-0.7,1.8h-1.9l3.7-9.3h2L199.1,35.8z M196.1,32.6l-1.7-4.5l-1.7,4.5H196.1z"/>
	<path class="st0" d="M208.3,35.8h-1.6v-4.1h-4.9v4.1h-1.6v-9.3h1.6v3.8h4.9v-3.8h1.6V35.8z"/>
	<path class="st0" d="M214.7,36c-1.4,0-2.6-0.5-3.5-1.3c-0.9-0.9-1.4-2.1-1.4-3.5c0-1.4,0.5-2.6,1.4-3.5s2.1-1.4,3.5-1.4
		c1.6,0,2.9,0.7,3.8,2.1l-1.4,0.7c-0.2-0.4-0.6-0.7-1-1c-0.4-0.2-0.9-0.4-1.4-0.4c-0.9,0-1.7,0.3-2.3,1s-0.9,1.4-0.9,2.4
		s0.3,1.8,0.9,2.4c0.6,0.6,1.4,1,2.3,1c0.5,0,0.9-0.1,1.4-0.4s0.8-0.6,1-1l1.4,0.7C217.6,35.3,216.3,36,214.7,36z"/>
	<path class="st0" d="M227.4,35.8h-2l-3.1-3.9l-0.8,1v3h-1.6v-9.3h1.6V31l3.6-4.5h2l-3.8,4.4L227.4,35.8z"/>
	<path class="st0" d="M230.1,35.8h-1.6v-9.3h1.6V33l4.8-6.5h1.7v9.3h-1.6v-6.7L230.1,35.8z"/>
	<path class="st0" d="M240.2,35.8h-1.6v-9.3h1.6V33l4.8-6.5h1.7v9.3H245v-6.7L240.2,35.8z M245.1,24.8c-0.6,0.8-1.4,1.2-2.4,1.2
		c-1,0-1.8-0.4-2.5-1.2l0.7-0.6c0.4,0.6,1,0.9,1.8,0.9s1.3-0.3,1.8-0.9L245.1,24.8z"/>
	<path class="st0" d="M253.9,35.8h-1.6v-9.3h6.4v1.4h-4.8V35.8z"/>
	<path class="st0" d="M267.9,34.6c-0.9,0.9-2,1.4-3.4,1.4s-2.5-0.5-3.4-1.4c-0.9-0.9-1.3-2.1-1.3-3.5s0.5-2.5,1.3-3.5
		c0.9-0.9,2-1.4,3.4-1.4s2.5,0.5,3.4,1.4c0.9,0.9,1.3,2.1,1.3,3.5C269.2,32.6,268.8,33.7,267.9,34.6z M264.5,34.5
		c0.9,0,1.7-0.3,2.2-1c0.6-0.6,0.9-1.4,0.9-2.4c0-1-0.3-1.8-0.9-2.4s-1.3-1-2.2-1c-0.9,0-1.7,0.3-2.2,1c-0.6,0.6-0.9,1.4-0.9,2.4
		c0,1,0.3,1.8,0.9,2.4C262.8,34.2,263.5,34.5,264.5,34.5z"/>
	<path class="st0" d="M275.3,36c-1.4,0-2.6-0.5-3.5-1.3c-0.9-0.9-1.4-2.1-1.4-3.5c0-1.4,0.5-2.6,1.4-3.5s2.1-1.4,3.5-1.4
		c1.6,0,2.9,0.7,3.8,2.1l-1.4,0.7c-0.2-0.4-0.6-0.7-1-1c-0.4-0.2-0.9-0.4-1.4-0.4c-0.9,0-1.7,0.3-2.3,1s-0.9,1.4-0.9,2.4
		s0.3,1.8,0.9,2.4c0.6,0.6,1.4,1,2.3,1c0.5,0,1-0.1,1.4-0.4s0.8-0.6,1-1l1.4,0.7C278.2,35.3,276.9,36,275.3,36z"/>
	<path class="st0" d="M281.5,36c-0.4,0-0.8-0.1-1.1-0.2c-0.4-0.1-0.6-0.3-0.8-0.5l0.6-1.3c0.4,0.3,0.8,0.5,1.2,0.5
		c0.4,0,0.6-0.1,0.9-0.3s0.4-0.5,0.7-0.9l-3.5-6.9h1.9l2.6,5.5l2.6-5.5h1.9l-3.9,7.6c-0.3,0.6-0.7,1.1-1.1,1.4
		C282.8,35.8,282.2,36,281.5,36z"/>
	<path class="st0" d="M288.7,37.6v-3c0.4,0,0.7-0.1,0.9-0.3s0.4-0.5,0.6-0.9c0.2-0.5,0.3-1.2,0.4-2l0.5-4.8h6.3v7.9h0.9v3.2h-1.6
		v-1.7h-6.3v1.7L288.7,37.6L288.7,37.6z M292.2,31.4c-0.2,1.4-0.6,2.4-1.2,3h4.9V28h-3.2L292.2,31.4z"/>
	<path class="st0" d="M308,35.8h-1.9l-0.7-1.8h-4.3l-0.7,1.8h-1.9l3.7-9.3h2L308,35.8z M304.9,32.6l-1.7-4.5l-1.7,4.5H304.9z"/>
	<path class="st0" d="M310.6,35.8H309v-9.3h4.1c0.9,0,1.7,0.3,2.2,0.8s0.8,1.3,0.8,2.1c0,0.8-0.3,1.5-0.8,2.1
		c-0.5,0.6-1.3,0.9-2.2,0.9h-2.5V35.8z M312.9,30.9c0.5,0,0.9-0.1,1.1-0.4c0.3-0.3,0.5-0.6,0.5-1.1s-0.1-0.8-0.5-1.1
		c-0.3-0.3-0.7-0.4-1.1-0.4h-2.2v3L312.9,30.9L312.9,30.9z"/>
	<path class="st0" d="M322,36c-1.4,0-2.6-0.5-3.5-1.3c-0.9-0.9-1.4-2.1-1.4-3.5c0-1.4,0.5-2.6,1.4-3.5s2.1-1.4,3.5-1.4
		c1.6,0,2.9,0.7,3.8,2.1l-1.4,0.7c-0.2-0.4-0.6-0.7-1-1c-0.4-0.2-0.9-0.4-1.4-0.4c-0.9,0-1.7,0.3-2.3,1s-0.9,1.4-0.9,2.4
		s0.3,1.8,0.9,2.4c0.6,0.6,1.4,1,2.3,1c0.5,0,1-0.1,1.4-0.4s0.8-0.6,1-1l1.4,0.7C324.8,35.3,323.6,36,322,36z"/>
	<path class="st0" d="M330.9,35.8h-1.6v-7.9h-2.8v-1.4h7.3v1.4h-2.8L330.9,35.8L330.9,35.8z"/>
	<path class="st0" d="M339.8,35.8h-4.7v-9.3h4.6c0.8,0,1.5,0.2,2,0.7s0.7,1,0.7,1.7c0,0.6-0.2,1-0.5,1.4s-0.7,0.6-1.2,0.7
		c0.5,0.1,0.9,0.3,1.3,0.8c0.4,0.4,0.5,0.9,0.5,1.5c0,0.8-0.2,1.3-0.7,1.8C341.3,35.6,340.7,35.8,339.8,35.8z M339.4,30.4
		c0.4,0,0.7-0.1,1-0.3s0.4-0.5,0.4-0.9s-0.1-0.7-0.4-0.9s-0.6-0.3-1-0.3h-2.6v2.4L339.4,30.4L339.4,30.4z M339.4,34.4
		c0.5,0,0.8-0.1,1-0.3s0.4-0.5,0.4-1c0-0.4-0.1-0.7-0.4-0.9s-0.6-0.4-1-0.4h-2.7v2.6H339.4z"/>
	<path class="st0" d="M350.6,35.8h-6.4v-9.3h6.4v1.4h-4.8v2.4h4.7v1.4h-4.7v2.6h4.8V35.8z"/>
	<path class="st0" d="M360.4,35.8h-1.6v-4.1h-4.9v4.1h-1.6v-9.3h1.6v3.8h4.9v-3.8h1.6V35.8z"/>
	<path class="st0" d="M370.5,35.8h-1.6v-4.1H364v4.1h-1.6v-9.3h1.6v3.8h4.9v-3.8h1.6V35.8z"/>
	<path class="st0" d="M372.5,26.5h1.6V30h2.5c0.9,0,1.7,0.3,2.2,0.9c0.5,0.6,0.8,1.3,0.8,2.1c0,0.8-0.3,1.5-0.8,2.1
		s-1.3,0.8-2.2,0.8h-4.1V26.5z M376.4,31.4h-2.2v3h2.2c0.5,0,0.9-0.1,1.1-0.4s0.5-0.6,0.5-1.1s-0.1-0.8-0.5-1.1
		S376.9,31.4,376.4,31.4z M382.2,35.8h-1.6v-9.3h1.6V35.8z"/>
	<path class="st0" d="M385.7,35.8h-1.6v-9.3h1.6V33l4.8-6.5h1.7v9.3h-1.6v-6.7L385.7,35.8z M390.6,24.8c-0.6,0.8-1.4,1.2-2.5,1.2
		c-1,0-1.8-0.4-2.5-1.2l0.7-0.6c0.5,0.6,1,0.9,1.8,0.9s1.3-0.3,1.8-0.9L390.6,24.8z"/>
	<path class="st0" d="M144.9,52.6H143l-0.7-1.8h-4.3l-0.7,1.8h-1.9l3.7-9.3h2L144.9,52.6z M141.9,49.4l-1.7-4.5l-1.7,4.5H141.9z"/>
	<path class="st0" d="M147.5,52.6h-1.6v-9.3h4.1c0.9,0,1.7,0.3,2.2,0.8s0.8,1.3,0.8,2.1c0,0.8-0.3,1.5-0.8,2.1s-1.3,0.8-2.2,0.8
		h-2.5V52.6z M149.8,47.7c0.5,0,0.9-0.1,1.1-0.4c0.3-0.3,0.4-0.6,0.4-1.1s-0.1-0.8-0.4-1.1s-0.7-0.4-1.1-0.4h-2.2v3L149.8,47.7
		L149.8,47.7z"/>
	<path class="st0" d="M162.6,52.6h-2L158,49l-2.6,3.7h-2l3.5-4.8l-3.3-4.5h2l2.4,3.4l2.4-3.4h2l-3.3,4.5L162.6,52.6z"/>
	<path class="st0" d="M165.2,52.6h-1.6v-9.3h1.6v6.5l4.8-6.5h1.7v9.3h-1.6V46L165.2,52.6z"/>
	<path class="st0" d="M177.6,52.6H176v-7.9h-2.8v-1.4h7.3v1.4h-2.8L177.6,52.6L177.6,52.6z"/>
	<path class="st0" d="M188.2,52.6h-6.4v-9.3h6.4v1.4h-4.8v2.4h4.7v1.4h-4.7v2.6h4.8V52.6z"/>
	<path class="st0" d="M197.5,52.6h-2l-3.1-3.9l-0.8,1v3h-1.6v-9.3h1.6v4.5l3.6-4.5h2l-3.8,4.4L197.5,52.6z"/>
	<path class="st0" d="M202.5,52.6h-1.6v-7.9H198v-1.4h7.3v1.4h-2.8L202.5,52.6L202.5,52.6z"/>
	<path class="st0" d="M207.8,52.8c-0.4,0-0.8-0.1-1.1-0.2s-0.6-0.3-0.8-0.5l0.6-1.3c0.4,0.4,0.8,0.5,1.2,0.5c0.4,0,0.6-0.1,0.9-0.3
		s0.4-0.5,0.7-0.9l-3.5-6.9h1.9l2.6,5.5l2.6-5.5h1.9l-3.9,7.6c-0.3,0.6-0.7,1.1-1.1,1.4C209.1,52.7,208.5,52.8,207.8,52.8z"/>
	<path class="st0" d="M217.2,52.6h-1.6v-9.3h4.1c0.9,0,1.7,0.3,2.2,0.8s0.8,1.3,0.8,2.1c0,0.8-0.3,1.5-0.8,2.1s-1.3,0.8-2.2,0.8
		h-2.5V52.6z M219.5,47.7c0.5,0,0.9-0.1,1.1-0.4c0.3-0.3,0.4-0.6,0.4-1.1s-0.1-0.8-0.4-1.1s-0.7-0.4-1.1-0.4h-2.2v3L219.5,47.7
		L219.5,47.7z"/>
	<path class="st0" d="M232.2,52.6h-1.6v-4.1h-4.9v4.1h-1.6v-9.3h1.6v3.8h4.9v-3.8h1.6V52.6z"/>
	<path class="st0" d="M242,51.4c-0.9,0.9-2,1.4-3.4,1.4s-2.5-0.5-3.4-1.4s-1.3-2.1-1.3-3.5c0-1.4,0.4-2.5,1.3-3.5
		c0.9-0.9,2-1.4,3.4-1.4s2.5,0.5,3.4,1.4s1.3,2.1,1.3,3.5C243.4,49.4,242.9,50.5,242,51.4z M238.6,51.3c0.9,0,1.7-0.3,2.2-1
		s0.9-1.4,0.9-2.4s-0.3-1.8-0.9-2.4s-1.3-1-2.2-1c-0.9,0-1.7,0.3-2.2,1c-0.6,0.6-0.9,1.4-0.9,2.4s0.3,1.8,0.9,2.4
		C236.9,51,237.6,51.3,238.6,51.3z"/>
	<path class="st0" d="M251.3,49.9H248v-1.3h3.4V49.9z"/>
	<path class="st0" d="M260.8,52.8c-1.4,0-2.6-0.5-3.5-1.3c-0.9-0.9-1.4-2.1-1.4-3.5s0.5-2.6,1.4-3.5c0.9-0.9,2.1-1.3,3.5-1.3
		c1.6,0,2.9,0.7,3.8,2.1l-1.4,0.7c-0.2-0.4-0.6-0.7-1-1c-0.4-0.2-0.9-0.4-1.4-0.4c-0.9,0-1.7,0.3-2.3,1s-0.9,1.4-0.9,2.4
		s0.3,1.8,0.9,2.4s1.4,1,2.3,1c0.5,0,1-0.1,1.4-0.4s0.8-0.6,1-1l1.4,0.7C263.7,52.1,262.4,52.8,260.8,52.8z"/>
	<path class="st0" d="M269.7,52.6h-1.6v-7.9h-2.8v-1.4h7.3v1.4h-2.8L269.7,52.6L269.7,52.6z"/>
	<path class="st0" d="M275.6,52.6h-1.6v-9.3h4.1c0.9,0,1.7,0.3,2.2,0.8s0.8,1.3,0.8,2.1c0,0.8-0.3,1.5-0.8,2.1
		c-0.5,0.6-1.3,0.8-2.2,0.8h-2.5V52.6z M277.8,47.7c0.5,0,0.9-0.1,1.1-0.4c0.3-0.3,0.5-0.6,0.5-1.1s-0.1-0.8-0.5-1.1
		c-0.3-0.3-0.7-0.4-1.1-0.4h-2.2v3L277.8,47.7L277.8,47.7z"/>
	<path class="st0" d="M290.2,51.4c-0.9,0.9-2,1.4-3.4,1.4s-2.5-0.5-3.4-1.4s-1.3-2.1-1.3-3.5c0-1.4,0.5-2.5,1.3-3.5
		c0.9-0.9,2-1.4,3.4-1.4s2.5,0.5,3.4,1.4s1.3,2.1,1.3,3.5C291.6,49.4,291.1,50.5,290.2,51.4z M286.8,51.3c0.9,0,1.7-0.3,2.2-1
		s0.9-1.4,0.9-2.4s-0.3-1.8-0.9-2.4s-1.3-1-2.2-1c-0.9,0-1.7,0.3-2.2,1c-0.6,0.6-0.9,1.4-0.9,2.4s0.3,1.8,0.9,2.4
		C285.1,51,285.9,51.3,286.8,51.3z"/>
	<path class="st0" d="M294.8,52.6h-1.6v-9.3h1.6v6.5l4.8-6.5h1.7v9.3h-1.6V46L294.8,52.6z"/>
	<path class="st0" d="M307.1,52.6h-1.6v-7.9h-2.8v-1.4h7.3v1.4h-2.8L307.1,52.6L307.1,52.6z"/>
	<path class="st0" d="M317.7,52.6h-6.4v-9.3h6.4v1.4H313v2.4h4.7v1.4H313v2.6h4.8V52.6z"/>
	<path class="st0" d="M318.8,52.8v-1.5c0.5,0,1-0.2,1.2-0.6c0.3-0.4,0.5-1.3,0.6-2.6l0.5-4.8h6.3v9.3h-1.6v-7.9h-3.2l-0.4,3.5
		c-0.1,1-0.3,1.8-0.5,2.4s-0.5,1.1-0.8,1.4s-0.6,0.5-1,0.6S319.3,52.8,318.8,52.8z"/>
	<path class="st0" d="M329.5,43.3h1.6v3.5h2.5c0.9,0,1.7,0.3,2.2,0.8c0.5,0.6,0.8,1.3,0.8,2.1c0,0.8-0.3,1.5-0.8,2.1
		s-1.3,0.8-2.2,0.8h-4.1V43.3z M333.4,48.2h-2.2v3h2.2c0.5,0,0.9-0.1,1.1-0.4s0.5-0.6,0.5-1.1s-0.1-0.8-0.5-1.1
		S333.9,48.2,333.4,48.2z"/>
	<path class="st0" d="M346.2,52.6h-1.6v-4.1h-4.9v4.1H338v-9.3h1.6v3.8h4.9v-3.8h1.6V52.6z"/>
	<path class="st0" d="M348.2,43.3h1.6v3.5h2.5c0.9,0,1.7,0.3,2.2,0.8c0.5,0.6,0.8,1.3,0.8,2.1c0,0.8-0.3,1.5-0.8,2.1
		s-1.3,0.8-2.2,0.8h-4.1V43.3z M352,48.2h-2.2v3h2.2c0.5,0,0.9-0.1,1.1-0.4s0.5-0.6,0.5-1.1s-0.1-0.8-0.5-1.1S352.5,48.2,352,48.2z
		 M357.8,52.6h-1.6v-9.3h1.6V52.6z"/>
	<path class="st0" d="M361.4,52.6h-1.6v-9.3h1.6v6.5l4.8-6.5h1.7v9.3h-1.6V46L361.4,52.6z M366.3,41.6c-0.6,0.8-1.4,1.2-2.5,1.2
		c-1,0-1.8-0.4-2.5-1.2l0.7-0.6c0.5,0.6,1,0.9,1.8,0.9s1.3-0.3,1.8-0.9L366.3,41.6z"/>
	<path class="st0" d="M137.6,69.6c-0.4,0-0.8-0.1-1.1-0.2s-0.6-0.3-0.8-0.4l0.6-1.3c0.4,0.4,0.8,0.5,1.2,0.5c0.4,0,0.6-0.1,0.9-0.3
		c0.2-0.2,0.4-0.5,0.7-0.9l-3.5-6.9h1.9l2.6,5.4l2.6-5.5h1.9l-3.9,7.6c-0.3,0.6-0.7,1.1-1.1,1.4C138.9,69.4,138.3,69.6,137.6,69.6z"
		/>
	<path class="st0" d="M153.5,69.4h-1.6v-4.1H147v4.1h-1.6v-9.3h1.6v3.8h4.9v-3.8h1.6V69.4z"/>
	<path class="st0" d="M157.1,69.4h-1.6v-9.3h1.6v6.5l4.8-6.5h1.7v9.3H162v-6.7L157.1,69.4z"/>
	<path class="st0" d="M170.3,69.4h-4.7v-9.3h4.6c0.8,0,1.5,0.2,1.9,0.7s0.7,1,0.7,1.7c0,0.6-0.2,1-0.5,1.4c-0.3,0.4-0.7,0.6-1.2,0.7
		c0.5,0.1,0.9,0.3,1.3,0.8c0.4,0.4,0.5,0.9,0.5,1.5c0,0.8-0.2,1.3-0.7,1.8S171.2,69.4,170.3,69.4z M169.9,64c0.4,0,0.7-0.1,1-0.3
		c0.2-0.2,0.4-0.5,0.4-0.9s-0.1-0.7-0.4-0.9c-0.2-0.2-0.6-0.3-1-0.3h-2.6v2.4L169.9,64L169.9,64z M169.9,68c0.4,0,0.8-0.1,1.1-0.3
		s0.4-0.6,0.4-1c0-0.4-0.1-0.7-0.4-0.9s-0.6-0.4-1.1-0.4h-2.7V68H169.9z"/>
	<path class="st0" d="M181.1,69.4h-6.4v-9.3h6.4v1.4h-4.8V64h4.7v1.4h-4.7V68h4.8V69.4z"/>
	<path class="st0" d="M184.4,69.4h-1.6v-9.3h4.1c0.9,0,1.7,0.3,2.2,0.8s0.8,1.2,0.8,2.1c0,0.8-0.3,1.5-0.8,2.1s-1.3,0.8-2.2,0.8
		h-2.5V69.4z M186.6,64.5c0.5,0,0.9-0.1,1.1-0.4s0.4-0.6,0.4-1.1s-0.1-0.8-0.4-1.1s-0.7-0.4-1.1-0.4h-2.2v3L186.6,64.5L186.6,64.5z"
		/>
	<path class="st0" d="M195.7,69.6c-1.4,0-2.6-0.4-3.5-1.3s-1.4-2.1-1.4-3.5s0.5-2.6,1.4-3.5c0.9-0.9,2.1-1.3,3.5-1.3
		c1.6,0,2.9,0.7,3.8,2.1l-1.4,0.7c-0.2-0.4-0.6-0.7-1-1c-0.4-0.2-0.9-0.4-1.4-0.4c-0.9,0-1.7,0.3-2.3,1s-0.9,1.4-0.9,2.4
		c0,1,0.3,1.8,0.9,2.4s1.4,0.9,2.3,0.9c0.5,0,0.9-0.1,1.4-0.4s0.8-0.6,1-1l1.4,0.7C198.6,68.9,197.3,69.6,195.7,69.6z"/>
	<path class="st0" d="M202.4,69.4h-1.6v-9.3h1.6v6.5l4.8-6.5h1.7v9.3h-1.6v-6.7L202.4,69.4z"/>
	<path class="st0" d="M214.8,69.4h-1.6v-7.9h-2.8v-1.4h7.3v1.4h-2.8L214.8,69.4L214.8,69.4z"/>
	<path class="st0" d="M225.4,69.4H219v-9.3h6.4v1.4h-4.8V64h4.7v1.4h-4.7V68h4.8V69.4z"/>
	<path class="st0" d="M230.9,69.4h-1.6v-7.9h-2.8v-1.4h7.3v1.4h-2.8L230.9,69.4L230.9,69.4z"/>
</g>
<g>
	<path class="st1" d="M49.9,91.8h-2.7l-0.5-1.3H43l-0.5,1.3h-2.7l3.5-9.3h3L49.9,91.8z M46,88.4l-1.2-3.5l-1.2,3.5H46z"/>
	<path class="st1" d="M54.2,91.8h-2.4v-9.3h6.8v2.1h-4.4V91.8z"/>
	<path class="st1" d="M69.4,91.8h-2.7l-0.5-1.3h-3.7l-0.5,1.3h-2.7l3.5-9.3h3L69.4,91.8z M65.6,88.4l-1.2-3.5l-1.2,3.5H65.6z"/>
	<path class="st1" d="M75.5,92c-1.4,0-2.7-0.4-3.6-1.3s-1.4-2.1-1.4-3.5c0-1.4,0.5-2.6,1.4-3.5s2.2-1.3,3.6-1.3
		c1.9,0,3.2,0.8,4.1,2.5l-2.1,1c-0.2-0.4-0.4-0.7-0.8-1s-0.8-0.4-1.2-0.4c-0.8,0-1.4,0.3-1.9,0.8c-0.5,0.5-0.7,1.2-0.7,1.9
		s0.2,1.4,0.7,1.9s1.1,0.8,1.9,0.8c0.4,0,0.8-0.1,1.2-0.4s0.6-0.6,0.8-1l2.1,1c-0.3,0.7-0.9,1.3-1.5,1.8C77.4,91.8,76.5,92,75.5,92z
		"/>
	<path class="st1" d="M83.3,92c-1,0-1.8-0.2-2.4-0.7l0.9-1.9c0.4,0.3,0.8,0.5,1.2,0.5c0.3,0,0.5-0.1,0.7-0.2s0.3-0.3,0.5-0.5
		l-3.4-6.7h2.7l2,4.4l2-4.4h2.7L86.6,90C85.9,91.3,84.8,92,83.3,92z"/>
</g>
<polygon class="st2" points="32.2,34 18.4,60.4 46,60.4 "/>
<polygon class="st3" points="16.2,63.8 2.4,90.2 30,90.2 "/>
<polygon class="st4" points="48.4,3.4 34.6,29.8 62.2,29.8 "/>
<polygon class="st5" points="83,3.1 69.2,29.4 96.8,29.4 "/>
<polygon class="st6" points="99.5,34 85.8,60.4 113.3,60.4 "/>
<polygon class="st7" points="114.9,63.8 101.1,90.2 128.7,90.2 "/>
<polygon class="st8" points="65.9,29.4 79.7,3.1 52.1,3.1 "/>
<polygon class="st9" points="48.4,59 62.2,32.6 34.6,32.6 "/>
<polygon class="st10" points="32.2,89 46,62.6 18.4,62.6 "/>
<polygon class="st11" points="83,59.4 96.8,33 69.2,33 "/>
<polygon class="st12" points="98.7,89.1 112.5,62.8 84.9,62.8 "/>
<polygon class="st13" points="65.9,33.3 52.1,59.7 79.7,59.7 "/>
</svg>
